<?xml version="1.0" standalone="no"?>
<!DOCTYPE svg PUBLIC "-//W3C//DTD SVG 20010904//EN"
 "http://www.w3.org/TR/2001/REC-SVG-20010904/DTD/svg10.dtd">
<svg version="1.0" xmlns="http://www.w3.org/2000/svg"
 width="1920.000000pt" height="1920.000000pt" viewBox="0 0 1920.000000 1920.000000"
 preserveAspectRatio="xMidYMid meet">

<g transform="translate(0.000000,1920.000000) scale(0.100000,-0.100000)"
fill="#000000" stroke="none">
<path d="M9195 15409 c-627 -46 -1217 -184 -1800 -419 -177 -71 -559 -260
-730 -360 -631 -372 -1184 -854 -1636 -1425 -136 -171 -254 -334 -312 -428
-326 -534 -501 -903 -657 -1382 -202 -625 -289 -1223 -277 -1905 5 -317 20
-495 63 -780 111 -727 376 -1467 746 -2080 156 -258 179 -294 274 -423 346
-467 687 -825 1093 -1151 939 -751 2071 -1189 3281 -1267 204 -13 704 -7 880
11 741 74 1387 254 2016 559 882 430 1575 1011 2186 1834 107 144 130 178 286
437 370 613 635 1353 746 2080 76 501 87 1054 30 1555 -75 668 -261 1297 -564
1910 -106 215 -168 325 -337 602 -88 143 -311 436 -497 653 -123 144 -434 452
-588 584 -748 639 -1629 1076 -2580 1281 -248 53 -542 94 -833 115 -161 11
-628 11 -790 -1z m165 -1770 l0 -1280 -152 6 c-530 21 -800 38 -1165 76 -206
21 -414 47 -419 52 -5 5 74 256 126 402 150 426 357 853 560 1155 127 189 216
297 364 445 202 200 373 316 580 391 50 18 94 33 99 34 4 0 7 -576 7 -1281z
m605 1240 c187 -68 367 -191 561 -384 148 -148 237 -256 364 -445 203 -302
410 -729 560 -1155 52 -146 131 -397 126 -402 -5 -6 -230 -33 -476 -58 -271
-27 -612 -51 -850 -60 -85 -3 -212 -8 -282 -11 l-128 -6 0 1282 0 1281 23 -7
c12 -3 58 -20 102 -35z m-1753 -176 c-376 -420 -719 -1064 -962 -1805 -38
-117 -77 -239 -85 -270 -13 -46 -21 -58 -36 -58 -79 0 -726 149 -1020 235
-233 68 -619 202 -619 215 0 3 60 73 133 155 659 740 1517 1282 2472 1560 83
24 158 44 168 45 13 0 -1 -22 -51 -77z m2874 38 c538 -153 1086 -412 1551
-734 256 -178 542 -418 760 -639 103 -105 313 -338 313 -348 0 -13 -388 -147
-619 -215 -297 -87 -940 -235 -1020 -235 -15 0 -23 12 -36 58 -38 136 -158
491 -220 647 -231 586 -511 1070 -823 1423 -40 45 -67 82 -59 82 8 0 77 -18
153 -39z m-5756 -2172 c393 -160 1056 -346 1560 -439 63 -12 120 -23 126 -25
8 -2 1 -54 -22 -162 -114 -543 -199 -1225 -219 -1758 -3 -82 -8 -187 -11 -232
l-6 -83 -1249 0 -1249 0 0 28 c0 50 20 265 36 387 103 796 379 1550 813 2217
42 65 81 118 86 118 6 0 66 -23 135 -51z m8761 -67 c492 -756 781 -1626 845
-2534 l6 -98 -1250 0 -1250 0 -6 83 c-3 45 -8 150 -11 232 -20 533 -105 1215
-219 1758 -23 108 -30 160 -22 162 6 2 63 13 126 25 526 99 1184 284 1555 438
66 28 127 50 135 51 9 0 47 -49 91 -117z m-6381 -502 c498 -60 1203 -110 1557
-110 l93 0 0 -1010 0 -1010 -1062 0 -1061 0 7 188 c20 573 96 1216 207 1749
45 223 46 224 72 218 12 -2 96 -14 187 -25z m3999 -7 c36 -138 110 -545 150
-828 47 -332 85 -760 97 -1107 l7 -188 -1061 0 -1062 0 0 1010 0 1010 93 0
c247 0 843 35 1197 71 157 16 503 57 562 68 4 0 12 -16 17 -36z m-4945 -2755
c32 -758 99 -1344 221 -1935 19 -94 35 -177 35 -185 0 -9 -66 -26 -219 -56
-562 -110 -1174 -290 -1582 -465 l-35 -16 -54 82 c-303 462 -549 1006 -694
1539 -92 337 -176 875 -176 1125 l0 63 1249 0 1249 0 6 -152z m2596 -883 l0
-1035 -107 0 c-373 0 -1168 -59 -1613 -119 -74 -10 -138 -16 -142 -12 -11 9
-94 434 -127 646 -73 472 -114 902 -128 1348 l-6 207 1061 0 1062 0 0 -1035z
m2597 823 c-18 -585 -93 -1224 -209 -1788 -22 -107 -43 -198 -46 -201 -4 -4
-68 2 -142 12 -448 60 -1235 119 -1612 119 l-108 0 0 1035 0 1035 1062 0 1061
0 -6 -212z m2983 149 c0 -86 -26 -350 -51 -522 -108 -746 -397 -1500 -819
-2142 l-54 -82 -35 16 c-408 175 -1020 355 -1582 465 -153 30 -219 47 -219 56
0 8 16 91 35 185 122 589 190 1184 221 1930 l6 157 1249 0 1249 0 0 -63z
m-5580 -3763 l0 -1285 -22 7 c-252 77 -440 196 -664 419 -254 253 -440 524
-648 945 -101 205 -169 364 -258 605 -65 177 -152 454 -145 461 14 14 603 76
947 99 214 15 534 30 718 33 l72 2 0 -1286z m1020 1265 c345 -16 728 -49 1044
-89 81 -10 150 -21 153 -24 3 -2 -16 -73 -43 -158 -163 -527 -398 -1041 -644
-1408 -127 -189 -216 -297 -364 -445 -224 -223 -412 -342 -663 -419 l-23 -7 0
1286 0 1287 168 -7 c92 -3 259 -10 372 -16z m-3191 -337 c236 -797 610 -1527
1018 -1988 35 -40 63 -74 63 -77 0 -17 -396 109 -625 200 -676 267 -1285 662
-1803 1171 -149 147 -352 370 -352 387 0 12 31 25 278 111 217 76 455 146 717
210 205 51 594 132 635 133 24 1 27 -7 69 -147z m5124 103 c407 -82 789 -184
1119 -299 246 -86 278 -99 278 -111 0 -17 -186 -223 -340 -375 -255 -253 -490
-444 -790 -645 -331 -221 -662 -395 -1025 -538 -229 -91 -625 -217 -625 -200
0 3 28 37 63 77 410 463 785 1198 1023 2003 31 107 42 133 57 133 10 0 118
-20 240 -45z"/>
</g>
</svg>
